0
SECTION
2
BLOCKS
0
BLOCK
2
AHBAND
0
POLYLINE
8
14
66
1
70
1
0
VERTEX
8
14
10
196.013
20
39.734
0
VERTEX
8
14
10
192.211
20
55.271
0
VERTEX
8
14
10
187.179
20
70.455
0
VERTEX
8
14
10
180.950
20
85.188
0
VERTEX
8
14
10
173.564
20
99.376
0
VERTEX
8
14
10
165.067
20
112.928
0
VERTEX
8
14
10
155.515
20
125.759
0
VERTEX
8
14
10
144.967
20
137.784
0
VERTEX
8
14
10
133.493
20
148.929
0
VERTEX
8
14
10
121.164
20
159.120
0
VERTEX
8
14
10
108.060
20
168.294
0
VERTEX
8
14
10
94.266
20
176.392
0
VERTEX
8
14
10
79.868
20
183.361
0
VERTEX
8
14
10
64.959
20
189.157
0
VERTEX
8
14
10
49.635
20
193.743
0
VERTEX
8
14
10
33.993
20
197.090
0
VERTEX
8
14
10
27.195
20
157.672
0
VERTEX
8
14
10
39.708
20
154.994
0
VERTEX
8
14
10
51.967
20
151.325
0
VERTEX
8
14
10
63.894
20
146.688
0
VERTEX
8
14
10
75.413
20
141.113
0
VERTEX
8
14
10
86.448
20
134.635
0
VERTEX
8
14
10
96.931
20
127.296
0
VERTEX
8
14
10
106.794
20
119.143
0
VERTEX
8
14
10
115.974
20
110.227
0
VERTEX
8
14
10
124.412
20
100.607
0
VERTEX
8
14
10
132.054
20
90.343
0
VERTEX
8
14
10
138.851
20
79.501
0
VERTEX
8
14
10
144.760
20
68.150
0
VERTEX
8
14
10
149.743
20
56.364
0
VERTEX
8
14
10
153.769
20
44.217
0
VERTEX
8
14
10
156.811
20
31.787
0
SEQEND
0
ENDBLK
0
ENDSEC
0
EOF
